HIERARCHY
ROOT hips
{
  OFFSET 0 11.86390953 0.3628582958
  CHANNELS 6 Xposition Yposition Zposition Yrotation Xrotation Zrotation
  JOINT spine
  {
    OFFSET 0 0.05383551117999996 0
    CHANNELS 3 Yrotation Xrotation Zrotation
    JOINT chest
    {
      OFFSET 0 0.6394558760401424 0
      CHANNELS 3 Yrotation Xrotation Zrotation
      JOINT neck
      {
        OFFSET 0 2.720089088562982 0
        CHANNELS 3 Yrotation Xrotation Zrotation
        JOINT head
        {
          OFFSET 0 0.37880844870545777 0
          CHANNELS 3 Yrotation Xrotation Zrotation
          JOINT rightEye
          {
            OFFSET -0.42867780714 0.7547055649100001 0.7381831347
            CHANNELS 3 Yrotation Xrotation Zrotation
            End Site
            {
              OFFSET -0.42867780714 0.7547055649100001 0.7381831347
            }
          }
          JOINT leftEye
          {
            OFFSET 0.428676479 0.7547055559999993 0.7381844503
            CHANNELS 3 Yrotation Xrotation Zrotation
            End Site
            {
              OFFSET 0.428676479 0.7547055559999993 0.7381844503
            }
          }
          JOINT jaw
          {
            OFFSET -0.18933892286100001 1.5626303011000007 1.137441874206
            CHANNELS 3 Yrotation Xrotation Zrotation
            End Site
            {
              OFFSET -0.18933892286100001 1.5626303011000007 1.137441874206
            }
          }
        }
      }
      JOINT rightShoulder
      {
        OFFSET -0.6795351508 2.0665205 0
        CHANNELS 3 Yrotation Xrotation Zrotation
        JOINT rightUpperArm
        {
          OFFSET -0.7287400483531672 0 0
          CHANNELS 3 Yrotation Xrotation Zrotation
          JOINT rightLowerArm
          {
            OFFSET -1.9872982039174532 0 0
            CHANNELS 3 Yrotation Xrotation Zrotation
            JOINT rightHand
            {
              OFFSET -2.6451847532219275 0 0
              CHANNELS 3 Yrotation Xrotation Zrotation
              JOINT rightLittleProximal
              {
                OFFSET -0.8008804099999995 -0.09592044000000044 -0.26183688629999996
                CHANNELS 3 Yrotation Xrotation Zrotation
                JOINT rightLittleIntermediate
                {
                  OFFSET -0.2473955153999997 -0.02541697026000067 0.002370178700999967
                  CHANNELS 3 Yrotation Xrotation Zrotation
                  JOINT rightLittleDistal
                  {
                    OFFSET -0.163687229200001 -0.015790700860001117 -0.0004274845300000635
                    CHANNELS 3 Yrotation Xrotation Zrotation
                    End Site
                    {
                      OFFSET -0.163687229200001 -0.015790700860001117 -0.0004274845300000635
                    }
                  }
                }
              }
              JOINT rightRingProximal
              {
                OFFSET -0.8393382799999985 -0.06223833561000025 -0.09213143500000005
                CHANNELS 3 Yrotation Xrotation Zrotation
                JOINT rightRingIntermediate
                {
                  OFFSET -0.3284497260000011 -0.03264224524000103 0.009408593183000052
                  CHANNELS 3 Yrotation Xrotation Zrotation
                  JOINT rightRingDistal
                  {
                    OFFSET -0.19447660429999902 -0.021730899850000318 0.003074347969000052
                    CHANNELS 3 Yrotation Xrotation Zrotation
                    End Site
                    {
                      OFFSET -0.19447660429999902 -0.021730899850000318 0.003074347969000052
                    }
                  }
                }
              }
              JOINT rightMiddleProximal
              {
                OFFSET -0.8473005199999989 -0.06735503500000095 0.10541820299999995
                CHANNELS 3 Yrotation Xrotation Zrotation
                JOINT rightMiddleIntermediate
                {
                  OFFSET -0.3450455799999995 -0.02481901642000084 0.019012570390000032
                  CHANNELS 3 Yrotation Xrotation Zrotation
                  JOINT rightMiddleDistal
                  {
                    OFFSET -0.23542332000000088 -0.025003910029999243 0.0075583457949999905
                    CHANNELS 3 Yrotation Xrotation Zrotation
                    End Site
                    {
                      OFFSET -0.23542332000000088 -0.025003910029999243 0.0075583457949999905
                    }
                  }
                }
              }
              JOINT rightIndexProximal
              {
                OFFSET -0.8008568281999987 -0.09897839600000169 0.29462796
                CHANNELS 3 Yrotation Xrotation Zrotation
                JOINT rightIndexIntermediate
                {
                  OFFSET -0.30524754480000016 -0.024634122809999992 0.02743375304999998
                  CHANNELS 3 Yrotation Xrotation Zrotation
                  JOINT rightIndexDistal
                  {
                    OFFSET -0.23067378950000017 -0.016876459159999913 0.008484125099999983
                    CHANNELS 3 Yrotation Xrotation Zrotation
                    End Site
                    {
                      OFFSET -0.23067378950000017 -0.016876459159999913 0.008484125099999983
                    }
                  }
                }
              }
              JOINT rightThumbProximal
              {
                OFFSET -0.25574064999999935 -0.12833189930000155 0.22385698609999993
                CHANNELS 3 Yrotation Xrotation Zrotation
                JOINT rightThumbIntermediate
                {
                  OFFSET -0.22791743260000086 -0.07103586192999978 0.27385039
                  CHANNELS 3 Yrotation Xrotation Zrotation
                  JOINT rightThumbDistal
                  {
                    OFFSET -0.13610267659999975 -0.03369390969999997 0.14246511509999996
                    CHANNELS 3 Yrotation Xrotation Zrotation
                    End Site
                    {
                      OFFSET -0.13610267659999975 -0.03369390969999997 0.14246511509999996
                    }
                  }
                }
              }
            }
          }
        }
      }
      JOINT leftShoulder
      {
        OFFSET 0.6795338396 2.0665205 0
        CHANNELS 3 Yrotation Xrotation Zrotation
        JOINT leftUpperArm
        {
          OFFSET 0.7287383950230443 0 0
          CHANNELS 3 Yrotation Xrotation Zrotation
          JOINT leftLowerArm
          {
            OFFSET 1.9872997282019604 0 0
            CHANNELS 3 Yrotation Xrotation Zrotation
            JOINT leftHand
            {
              OFFSET 2.6451820781302327 0 0
              CHANNELS 3 Yrotation Xrotation Zrotation
              JOINT leftLittleProximal
              {
                OFFSET 0.8008804099999995 -0.09592306899999814 -0.2618342639000001
                CHANNELS 3 Yrotation Xrotation Zrotation
                JOINT leftLittleIntermediate
                {
                  OFFSET 0.2473981400000007 -0.02542352681000093 0.0023609995859999455
                  CHANNELS 3 Yrotation Xrotation Zrotation
                  JOINT leftLittleDistal
                  {
                    OFFSET 0.1636846068000002 -0.015794634789999318 -0.00043272972159996703
                    CHANNELS 3 Yrotation Xrotation Zrotation
                    End Site
                    {
                      OFFSET 0.1636846068000002 -0.015794634789999318 -0.00043272972159996703
                    }
                  }
                }
              }
              JOINT leftRingProximal
              {
                OFFSET 0.8393409199999996 -0.062242267999998324 -0.0921281570000001
                CHANNELS 3 Yrotation Xrotation Zrotation
                JOINT leftRingIntermediate
                {
                  OFFSET 0.3284471036000003 -0.03264224524000103 0.009405970574000042
                  CHANNELS 3 Yrotation Xrotation Zrotation
                  JOINT leftRingDistal
                  {
                    OFFSET 0.1944779099999996 -0.021732211159998904 0.003073036670000001
                    CHANNELS 3 Yrotation Xrotation Zrotation
                    End Site
                    {
                      OFFSET 0.1944779099999996 -0.021732211159998904 0.003073036670000001
                    }
                  }
                }
              }
              JOINT leftMiddleProximal
              {
                OFFSET 0.8473005200000001 -0.06736028199999788 0.1054214809999999
                CHANNELS 3 Yrotation Xrotation Zrotation
                JOINT leftMiddleIntermediate
                {
                  OFFSET 0.3450455799999995 -0.024824261000000014 0.019013225990000007
                  CHANNELS 3 Yrotation Xrotation Zrotation
                  JOINT leftMiddleDistal
                  {
                    OFFSET 0.2354259489999998 -0.025005222000000327 0.0075590014499999705
                    CHANNELS 3 Yrotation Xrotation Zrotation
                    End Site
                    {
                      OFFSET 0.2354259489999998 -0.025005222000000327 0.0075590014499999705
                    }
                  }
                }
              }
              JOINT leftIndexProximal
              {
                OFFSET 0.8008594516999996 -0.09898495199999946 0.29463124239999994
                CHANNELS 3 Yrotation Xrotation Zrotation
                JOINT leftIndexIntermediate
                {
                  OFFSET 0.30524754480000016 -0.024632811499998963 0.02743047472
                  CHANNELS 3 Yrotation Xrotation Zrotation
                  JOINT leftIndexDistal
                  {
                    OFFSET 0.23067378950000017 -0.016876459159999913 0.008481502700000004
                    CHANNELS 3 Yrotation Xrotation Zrotation
                    End Site
                    {
                      OFFSET 0.23067378950000017 -0.016876459159999913 0.008481502700000004
                    }
                  }
                }
              }
              JOINT leftThumbProximal
              {
                OFFSET 0.25574326469999953 -0.12833321050000013 0.22385764169999997
                CHANNELS 3 Yrotation Xrotation Zrotation
                JOINT leftThumbIntermediate
                {
                  OFFSET 0.22804987480000094 -0.07138466829999968 0.273648441
                  CHANNELS 3 Yrotation Xrotation Zrotation
                  JOINT leftThumbDistal
                  {
                    OFFSET 0.13614857189999907 -0.033867001519998885 0.14238119169999996
                    CHANNELS 3 Yrotation Xrotation Zrotation
                    End Site
                    {
                      OFFSET 0.13614857189999907 -0.033867001519998885 0.14238119169999996
                    }
                  }
                }
              }
            }
          }
        }
      }
    }
  }
  JOINT rightUpperLeg
  {
    OFFSET -0.9749898906000001 -1.8495733739999998 0
    CHANNELS 3 Yrotation Xrotation Zrotation
    JOINT rightLowerLeg
    {
      OFFSET 0 -4.1566544686813165 0
      CHANNELS 3 Yrotation Xrotation Zrotation
      JOINT rightFoot
      {
        OFFSET 0.14539718599999998 -4.225553926 -0.3666210900000001
        CHANNELS 3 Yrotation Xrotation Zrotation
        JOINT rightToes
        {
          OFFSET 0.1706738473 -0.9584117400000015 1.0093348617
          CHANNELS 3 Yrotation Xrotation Zrotation
          End Site
          {
            OFFSET 0.1706738473 -0.9584117400000015 1.0093348617
          }
        }
      }
    }
  }
  JOINT leftUpperLeg
  {
    OFFSET 0.9749898906000001 -1.8495733739999998 0
    CHANNELS 3 Yrotation Xrotation Zrotation
    JOINT leftLowerLeg
    {
      OFFSET 0 -4.156653488267941 0
      CHANNELS 3 Yrotation Xrotation Zrotation
      JOINT leftFoot
      {
        OFFSET -0.14537357999999995 -4.225555399999999 -0.36661124279999996
        CHANNELS 3 Yrotation Xrotation Zrotation
        JOINT leftToes
        {
          OFFSET -0.17066467000000002 -0.9584157000000019 1.0093348617
          CHANNELS 3 Yrotation Xrotation Zrotation
          End Site
          {
            OFFSET -0.17066467000000002 -0.9584157000000019 1.0093348617
          }
        }
      }
    }
  }
}
MOTION
Frames: 4
Frame Time: 0.03333333333333333
-0.17921540141105652 -0.22522811825683675 -0.16718314588069916 -4.304131071613346 4.538440902096794 -0.807538040130355 -3.791668485078638 15.426649054738089 -5.586543593644919 -0.8346880483796231 3.1495875160076805 5.080022679204468 2.1707439655763987 13.526544285445887 -0.5929092952660507 15.865911299989921 -44.28756569681182 -8.686460560273243 0 0 0 0 0 0 0 0 0 2.4633946362562873 2.5544694950299935 1.6115157145463344 31.12711444864053 -13.899286675000623 58.65438807205341 68.60519501710979 0.47020350447277276 -0.6891560379917713 11.411306564698407 -11.848434606429917 -23.97593957973368 -1.2510928851119347 0.1265492341842671 12.124332386257306 -1.9845572995601335 0.3026422336011798 19.417781544599066 -2.5073100955805656 0.45948877281206085 23.064884476033377 -1.0460280204804024 0.0883622123297936 9.825019962086786 -1.8841432432672218 0.28592912715765745 17.350773716601648 -2.2511192710976196 0.4235396722354998 21.05248699686643 -0.8220343550357523 0.054174517252901004 7.0503368919548794 -1.4838752126114716 0.19342083926506823 14.680906917175037 -2.0142203512869266 0.32092940212555066 18.49115127407511 -0.5468938703240999 0.02400694503133252 4.861272579953945 -1.3256156808031763 0.14671290384394786 12.551302126924085 -1.7697998785648212 0.25342485691588873 16.39633771273758 -12.207411551689976 -1.7401212660113579 -7.40384645342204 -15.495433547321564 4.785337671852255 -1.7377924441653485 -6.925580936967933 -0.8473252431614724 -2.597674513466311 -11.320638223965984 6.502269343115559 2.520637751280741 -39.42394868891781 -57.01079746291535 -24.91802577429328 -85.03996998614 0.6760634362854876 0.7374552162096165 -10.54472562066829 -68.83408226097461 30.984254742171984 4.676413495273197 0.2637268881415721 -3.1363031628699147 -2.435403733930153 0.28282492802694703 -16.06806578520977 2.2495312357546577 0.5080957873521028 -21.612868595937066 0.13011829508023187 0.0013940944911761367 -1.1937289266654862 1.3932698070737446 0.1596617214983219 -13.060892865540202 2.0239361241662284 0.3419219396556576 -19.162283973826582 -0.1969755447737997 0.00314978505134271 1.8016577085522028 1.0670921691833701 0.09242279152596994 -9.944401729755722 1.7024944751660127 0.23936595641372324 -16.006282955807507 -0.4562456396503616 0.016897499717847705 4.196934936996324 0.8207994664538005 0.05420573670085875 -7.539347854105674 1.4218776987282746 0.167873016471812 -13.406106636024907 13.646141607417988 -1.4907998983201791 7.101855060176005 16.36491545799994 4.196875160761689 2.3077122981235276 10.172108976473522 0.003552395813705154 3.1875310461885396 -1.7951769752567455 -13.323371165089894 -1.0463353051031343 -10.278903090396481 18.369124070424196 -0.43824884331452796 -9.113969576641804 -9.029576998459259 2.5946009933256775 -0.0000023606690736067713 -0.9436621112810882 0.000002301157253012098 12.139958845994391 -13.345976384256762 5.00611184826901 9.286102283135289 18.251388682167512 1.7221861719849574 1.0233128707615657 -8.65960222561216 -5.731613360492416 0.000011079752815931031 -0.34423680163365267 0.000001033037169411896
-0.184358611702919 -0.21448116238525472 -0.16334806382656097 -4.311546878481042 4.639184275400222 -0.8384963864833446 -3.9575622491071334 15.15316086899705 -5.568649183461844 -0.8807165789228514 3.1387615913674245 5.0087594573675585 2.2055639212695732 13.229499102747685 -0.6011374556309131 16.175190420558433 -44.897590335908674 -8.900669049061937 0 0 0 0 0 0 0 0 0 2.9316465395386917 2.6987662991375676 1.0461588556173518 30.504165383015998 -17.004859513733198 58.33391534940671 64.07921682941951 0.4166435571308618 -0.6656812595103234 10.044642685554733 -15.075518819576905 -22.333340938888103 -1.255667068234505 0.1274941638295744 12.167286484423128 -1.986793794731945 0.3033558382653608 19.439260973860407 -2.5084041558857524 0.4599196755685864 23.075613830516996 -1.0499844219517611 0.08905325621328689 9.861940730310648 -1.8861318108975278 0.2865265360407105 17.369842642296735 -2.252029338808353 0.4238987472335337 21.06162129170114 -0.8252346567561603 0.05460874138896065 7.080068304398977 -1.4854796656368099 0.19384884911035283 14.69629997315349 -2.0149819924194525 0.3211743322854957 18.49854471736027 -0.5495116494748854 0.024247430743946596 4.88541463270873 -1.326891592505784 0.1469794154990289 12.56342811280379 -1.7704360622306314 0.25360817992053647 16.40237690398361 -12.207411551689976 -1.7401212660113579 -7.40384645342204 -15.495433547321564 4.785337671852255 -1.7377924441653485 -6.925580936967933 -0.8473252431614724 -2.597674513466311 -11.334198793177267 6.425884105392159 3.088779625273027 -43.81372854291799 -59.1434907951598 -18.743087910609663 -77.35619570195374 0.578053838421898 0.7222767363548145 -12.156685069510793 -71.41334196499683 31.67299373674346 4.663254566209085 0.2533466558212595 -3.009203479746674 -2.441942519713394 0.2806871596900743 -16.00432933170195 2.246399429646574 0.5067263340825189 -21.581004417061155 0.1668576337213619 0.0022760458990479806 -1.5354749655254292 1.4117400661403 0.1639734023304147 -13.237243450393086 2.0325391145962164 0.3448955265938401 -19.24695644995712 -0.09722651460566706 0.0007784279656632145 0.8743563928193056 1.1177878687203748 0.10149523007461689 -10.422949975775616 1.7262499964379114 0.2462363079573355 -16.236127658270142 -0.30536297672060425 0.007566834932402007 2.7919581041103902 0.8956490976722604 0.06466416268402879 -8.241754514508415 1.4586092248561324 0.17676146732655046 -13.757246642109365 13.646141607417988 -1.4907998983201791 7.101855060176005 16.36491545799994 4.196875160761689 2.3077122981235276 10.172108976473522 0.003552395813705154 3.1875310461885396 -1.705578858524894 -13.067211059318577 -0.9702096312230272 -10.265167587647452 17.688660458179395 -0.33269411130305704 -9.252204585518298 -8.721220428857421 2.4817849879296885 0.000005352676425832003 -1.0088885774091911 -0.00000379547115490512 12.164600255824995 -13.122778468481679 5.025584597481832 9.251465741836475 17.615732885312138 1.6240226795298802 1.0760242425831692 -8.341259492955562 -5.712992463461929 0.000001954462871258898 -0.42622417047333794 -1.5492038837852975e-7
-0.1892547309398651 -0.2042558663647469 -0.1529931277036667 -4.27763184490615 4.6778149505445645 -0.8928713241714077 -4.085289772853004 14.820966329282388 -5.512186782113244 -0.9177327142441597 3.1300481758967202 4.941793029144052 2.219367047380736 12.90401447546213 -0.5999043273344722 16.299535473604514 -45.33285319964841 -8.998867815890613 0 0 0 0 0 0 0 0 0 3.37255300000929 2.795566782932658 0.2980102812592898 29.962666286365423 -20.131365305752492 57.99474556707318 59.19423971842344 0.36112748581201326 -0.6357018822847766 8.629104000341412 -17.98784590984985 -20.66283855628678 -1.2566360748236811 0.12768015354345938 12.176313686147697 -1.9872425680560306 0.30350909278398513 19.443778596999213 -2.5086319242829065 0.4600131134329062 23.07788135815537 -1.052991762012469 0.08956590789001519 9.889828947700758 -1.8876116635839453 0.2870128195839826 17.38422801982432 -2.2527376634685936 0.42415632712423246 21.068547106730822 -0.8308019201243154 0.05533384567736244 7.131611230107565 -1.4883045188563566 0.19456766394873812 14.722868305510268 -2.0163029323184913 0.32161123114202067 18.51130883340592 -0.5571916048626245 0.024915870536944905 4.9563151107936045 -1.3306612074738944 0.14782448078259486 12.598851973746983 -1.7722969310879897 0.25414659621175684 16.420104499093124 -12.207411551689976 -1.7401212660113579 -7.40384645342204 -15.495433547321564 4.785337671852255 -1.7377924441653485 -6.925580936967933 -0.8473252431614724 -2.597674513466311 -11.311282394732894 6.331447979331717 3.7106915048731914 -48.18350019769182 -60.45252458067728 -12.875694118781656 -70.57903084475716 0.4939443749730351 0.6981157190635622 -14.002454611851078 -73.50013470976205 32.628105328537465 4.652136366584738 0.24460171663599437 -2.9019690851912974 -2.447451187880975 0.27891510467675695 -15.950574349720773 2.2437264360014155 0.5055799381476319 -21.554131936440566 0.22208362294476366 0.004016136644398021 -2.048742575154372 1.439470666487275 0.17056333566582016 -13.502092464567744 2.045457611452089 0.3494522268758987 -19.37415895763813 0.041397098874916605 0.00016307666791531942 -0.41408229875702113 1.1880596305072506 0.1148406097618886 -11.087869793275267 1.7592264606393504 0.2559480230922648 -16.555471064331687 -0.09876499829296029 0.0007789966964722995 0.8707556694401992 0.9977887719590813 0.08044907606789217 -9.20225086965766 1.5087655130949376 0.1892466499320945 -14.23740736575452 13.646141607417988 -1.4907998983201791 7.101855060176005 16.36491545799994 4.196875160761689 2.3077122981235276 10.172108976473522 0.003552395813705154 3.1875310461885396 -1.6229848211644613 -12.695985530764618 -0.8787999344661629 -10.254169035158057 16.997840394856055 -0.21815258970637846 -9.419445620479024 -8.450939413839423 2.384283771734283 -0.000008360279124952035 -1.0538593198034334 6.363594419773864e-7 12.20133171133858 -12.83029607825821 5.080807751879748 9.14527063350762 17.01796638228092 1.5233558881857476 1.1448431890781399 -8.077371335146493 -5.707639046239622 0.00001173423348809608 -0.5193992977084949 -3.099247546947408e-7
-0.19146236777305603 -0.19959335263183675 -0.14580318331718445 -4.258091890870115 4.677848358999829 -0.9267033764670984 -4.1328707807515235 14.636396099612021 -5.472555731335204 -0.9322177876564954 3.1241985866523865 4.915470982241538 2.2211537019496337 12.735836971392224 -0.6109992095204636 16.3046350061532 -45.47907776785061 -9.002979891438482 0 0 0 0 0 0 0 0 0 3.57456153633181 2.823366196271919 -0.11829730915140148 29.73696572421761 -21.62165178383106 57.78539060280505 56.71386624076275 0.33396897983644214 -0.6186872975659187 8.010403509768869 -19.238458659952993 -19.900191126132604 -1.2556720829624826 0.1274794495379652 12.167092566441696 -1.986777582556773 0.30334105710194526 19.439157824855087 -2.5083899321962475 0.4598985973526467 23.075571005236558 -1.0537869564626905 0.08969892331882201 9.897292097481204 -1.8880176543781186 0.2871563353993698 17.388059776114744 -2.2529355674596068 0.42423148794541476 21.070383871198825 -0.8338584335673969 0.0557589817972896 7.159851167454629 -1.4898374921755928 0.19495543950702166 14.7374414244476 -2.017005365214932 0.3218539201271332 18.518283794900732 -0.5621039179750706 0.025366444619552585 5.001484149829856 -1.3330741439656528 0.14836065242343982 12.621434669385303 -1.7734564410006104 0.2544857077724012 16.431379118884813 -12.207411551689976 -1.7401212660113579 -7.40384645342204 -15.495433547321564 4.785337671852255 -1.7377924441653485 -6.925580936967933 -0.8473252431614724 -2.597674513466311 -11.282352513965565 6.277552005065678 4.023276675020039 -50.138155372381966 -60.84806246690095 -10.269029342593905 -67.6227820710427 0.458285873886047 0.6844826352937069 -14.789125101349764 -74.37296790712195 33.01835048370243 4.648577919773124 0.24183562518234017 -2.8675864990955637 -2.449235964431637 0.27833031617550535 -15.933329585873468 2.242884530656103 0.5052155227062102 -21.54552017575371 0.255485543133655 0.005315294574388959 -2.3595125739165694 1.4562527639462397 0.17463057168883778 -13.662459396458225 2.053278401579741 0.3522006558067038 -19.451171659520107 0.12121792883903523 0.0012160160890407152 -1.1561792484260323 1.2284826845942172 0.12288921795297927 -11.470841058397351 1.7782110675584755 0.26161951251255583 -16.739436261581282 0.019005211909687396 0.000036949303097011216 -0.22362144430667139 1.055855993517457 0.09021480334018946 -9.749361796471916 1.5372733303137585 0.19652744606671232 -14.510888804552334 13.646141607417988 -1.4907998983201791 7.101855060176005 16.36491545799994 4.196875160761689 2.3077122981235276 10.172108976473522 0.003552395813705154 3.1875310461885396 -1.5862861089973157 -12.484112856044751 -0.8307473918556403 -10.251632782533239 16.66558015623613 -0.16054791960190204 -9.496514457111168 -8.334437450982572 2.341347891469092 8.317977210692408e-7 -1.0710400926451848 5.122114067667795e-7 12.22215814862623 -12.668831278536686 5.118417685016948 9.083313939030985 16.74706115289111 1.4801915256361984 1.1793440536740432 -7.972058470232826 -5.712228841521694 4.396411593619729e-7 -0.5636054036000874 -0.0000018852372490166106
